<svg width="32" height="32" viewBox="0 0 32 32" fill="none" xmlns="http://www.w3.org/2000/svg">
<path d="M26.24 8H5.76001C4.86393 8 4.41589 8 4.07363 8.17439C3.77257 8.32779 3.5278 8.57256 3.3744 8.87362C3.20001 9.21587 3.20001 9.66392 3.20001 10.56V21.44C3.20001 22.3361 3.20001 22.7841 3.3744 23.1264C3.5278 23.4274 3.77257 23.6722 4.07363 23.8256C4.41589 24 4.86393 24 5.76001 24H26.24C27.1361 24 27.5841 24 27.9264 23.8256C28.2275 23.6722 28.4722 23.4274 28.6256 23.1264C28.8 22.7841 28.8 22.3361 28.8 21.44V10.56C28.8 9.66392 28.8 9.21587 28.6256 8.87362C28.4722 8.57256 28.2275 8.32779 27.9264 8.17439C27.5841 8 27.1361 8 26.24 8Z" fill="white"/>
<path d="M16.6621 14.4C17.7175 14.4 18.5732 15.2044 18.5732 16.1981V16.1992C18.5732 17.1929 17.7175 17.9985 16.6621 17.9985C15.6066 17.9985 14.751 17.1929 14.751 16.1992V16.1981C14.751 15.2044 15.6066 14.4 16.6621 14.4Z" fill="#F47216"/>
<path d="M13.6607 14.4247C13.9622 14.4247 14.215 14.4856 14.5228 14.6325V15.4087C14.2313 15.1404 13.9785 15.0282 13.6441 15.0282C12.9869 15.0282 12.4702 15.5404 12.4702 16.1898C12.4702 16.8746 12.971 17.3563 13.6767 17.3563C13.9944 17.3563 14.2425 17.2499 14.5228 16.986V17.7625C14.2041 17.9038 13.9459 17.9595 13.6441 17.9595C12.5771 17.9595 11.748 17.1887 11.748 16.1946C11.748 15.2111 12.5991 14.4247 13.6607 14.4247ZM10.3478 14.4461C10.7417 14.4461 11.1021 14.573 11.4034 14.8211L11.0367 15.2731C10.8542 15.0805 10.6816 14.9992 10.4717 14.9992C10.1697 14.9992 9.94972 15.1611 9.94972 15.3741C9.94972 15.5567 10.0731 15.6534 10.4936 15.7998C11.2907 16.0742 11.5269 16.3176 11.5269 16.8549C11.5269 17.5096 11.016 17.9654 10.2879 17.9654C9.75469 17.9654 9.36709 17.7677 9.04424 17.3216L9.49686 16.9112C9.65822 17.2049 9.92745 17.3623 10.2617 17.3623C10.5743 17.3623 10.8057 17.1594 10.8057 16.8853C10.8057 16.7433 10.7356 16.6215 10.5956 16.5354C10.5252 16.4946 10.3856 16.4338 10.1113 16.3428C9.45313 16.1197 9.22736 15.8813 9.22736 15.4153C9.22733 14.8618 9.71222 14.4461 10.3478 14.4461ZM18.3551 14.5051H19.1204L20.0785 16.7768L21.0489 14.5051H21.8085L20.2566 17.9741H19.8795L18.3551 14.5051ZM8.0796 14.5102H8.78033V17.8924H8.0796V14.5102ZM22.1253 14.5102H24.1126V15.0833H22.8256V15.834H24.0651V16.4068H22.8256V17.3198H24.1126V17.8924H22.1253V14.5102ZM26.0686 16.4676C26.5963 16.3664 26.8867 16.0266 26.8867 15.5088C26.8867 14.8756 26.4236 14.5103 25.6154 14.5103H24.5765V17.8925H25.2764V16.5337H25.3679L26.3377 17.8924H27.1994L26.0686 16.4676ZM25.4812 16.0672H25.2764V15.043H25.4922C25.9286 15.043 26.1658 15.2152 26.1658 15.5443C26.1658 15.8843 25.9287 16.0672 25.4812 16.0672ZM5.82849 14.5102H4.79999V17.8924H5.82313C6.36711 17.8924 6.76007 17.7715 7.1049 17.502C7.51474 17.1827 7.75705 16.7014 7.75705 16.2037C7.75708 15.2055 6.96489 14.5102 5.82849 14.5102ZM6.64712 17.051C6.42695 17.2381 6.14097 17.3198 5.68825 17.3198H5.50014V15.0833H5.68821C6.14094 15.0833 6.41562 15.1597 6.64709 15.3568C6.88943 15.56 7.0352 15.8748 7.0352 16.1988C7.03523 16.5234 6.88943 16.8478 6.64712 17.051Z" fill="black"/>
</svg>
