<svg width="64" height="32" viewBox="0 0 64 32" fill="none" xmlns="http://www.w3.org/2000/svg">
  <path d="M25.0418 29C25.0418 29.4142 25.3776 29.75 25.7918 29.75H38.2082C38.6224 29.75 38.9582 29.4142 38.9582 29V20.0712V11.8925H50C50.4142 11.8925 50.75 11.5567 50.75 11.1425V3C50.75 2.58579 50.4142 2.25 50 2.25H14C13.5858 2.25 13.25 2.58579 13.25 3V11.1425C13.25 11.5567 13.5858 11.8925 14 11.8925H25.0418V29Z" fill="black" stroke="#8878FF" stroke-width="1.5" stroke-linejoin="round"/>
  <path d="M28.5783 15.4697C28.2854 15.1768 27.8105 15.1768 27.5176 15.4697L26.4697 16.5176C26.1768 16.8105 26.1768 17.2854 26.4697 17.5783L29.8914 21L26.4697 24.4217C26.1768 24.7146 26.1768 25.1895 26.4697 25.4824L27.5176 26.5303C27.6583 26.671 27.849 26.75 28.0479 26.75C28.2469 26.75 28.4376 26.671 28.5783 26.5303L33.5783 21.5303C33.7189 21.3897 33.7979 21.1989 33.7979 21C33.7979 20.8011 33.7189 20.6103 33.5783 20.4697L28.5783 15.4697Z" fill="#8878FF" stroke="black" stroke-width="1.5" stroke-linecap="square" stroke-linejoin="round"/>
  <path d="M22.5783 15.4697C22.2854 15.1768 21.8105 15.1768 21.5176 15.4697L20.4697 16.5176C20.1768 16.8105 20.1768 17.2854 20.4697 17.5783L23.8914 21L20.4697 24.4217C20.1768 24.7146 20.1768 25.1895 20.4697 25.4824L21.5176 26.5303C21.6583 26.671 21.849 26.75 22.0479 26.75C22.2469 26.75 22.4376 26.671 22.5783 26.5303L27.5783 21.5303C27.7189 21.3897 27.7979 21.1989 27.7979 21C27.7979 20.8011 27.7189 20.6103 27.5783 20.4697L22.5783 15.4697Z" fill="#8878FF" stroke="black" stroke-width="1.5" stroke-linecap="square" stroke-linejoin="round"/>
</svg>
