<svg width="40" height="40" viewBox="0 0 40 40" fill="none" xmlns="http://www.w3.org/2000/svg">
<path d="M26.631 24.7926C29.8722 22.7652 32.3294 21.2203 32.5412 21.1003C33.2187 20.6898 33.9183 19.6034 32.5412 18.7596C32.0965 18.4943 29.7025 16.9974 26.631 15.0673L22.373 19.9659L26.631 24.7926Z" fill="#FFD900"/>
<path d="M22.3729 19.9653L8.81511 35.5316C9.13332 35.5796 9.49263 35.4836 9.91622 35.2183C10.8055 34.6637 20.2329 28.7988 26.6309 24.7932L22.3729 19.9653Z" fill="#F43249"/>
<path d="M22.3734 19.9653L26.6314 15.0907C26.6314 15.0907 10.8703 5.29211 9.91667 4.71354C9.55737 4.47107 9.15486 4.39905 8.79449 4.47107L22.3734 19.9653Z" fill="#00EE76"/>
<path d="M22.3735 19.9647L8.79458 4.47046C8.2435 4.6157 7.77777 5.17027 7.77777 6.30461C7.77777 8.11475 7.77777 32.2 7.77777 33.6968C7.77777 34.7351 8.13813 35.483 8.81566 35.555L22.3735 19.9647Z" fill="#00D3FF"/>
</svg>
