<svg width="32" height="32" viewBox="0 0 32 32" fill="none" xmlns="http://www.w3.org/2000/svg">
<path d="M19.4603 9.71094H12.538V22.2892H19.4603V9.71094Z" fill="#FF5F00"/>
<path d="M12.978 16.002C12.9767 14.7905 13.2481 13.5945 13.7716 12.5047C14.2951 11.4149 15.057 10.4598 15.9996 9.71179C14.8325 8.78441 13.4309 8.20773 11.955 8.04765C10.4791 7.88758 8.9884 8.15057 7.65332 8.80656C6.31824 9.46256 5.19263 10.4851 4.40513 11.7573C3.61763 13.0295 3.20001 14.5001 3.20001 16.0009C3.20001 17.5017 3.61763 18.9723 4.40513 20.2445C5.19263 21.5167 6.31824 22.5393 7.65332 23.1952C8.9884 23.8512 10.4791 24.1142 11.955 23.9542C13.4309 23.7941 14.8325 23.2174 15.9996 22.29C15.0573 21.5422 14.2956 20.5875 13.7721 19.4981C13.2486 18.4087 12.977 17.2132 12.978 16.002Z" fill="#EB001B"/>
<path d="M28.8002 16.0009C28.8002 17.5019 28.3825 18.9725 27.5948 20.2448C26.8072 21.517 25.6814 22.5395 24.3461 23.1954C23.0109 23.8513 21.5201 24.1142 20.0441 23.9539C18.5681 23.7936 17.1665 23.2166 15.9995 22.2889C16.9414 21.5405 17.7029 20.5855 18.2265 19.496C18.7502 18.4066 19.0223 17.2111 19.0223 15.9998C19.0223 14.7885 18.7502 13.5931 18.2265 12.5036C17.7029 11.4141 16.9414 10.4592 15.9995 9.71069C17.1665 8.78302 18.5681 8.20606 20.0441 8.04576C21.5201 7.88545 23.0109 8.14827 24.3461 8.80417C25.6814 9.46008 26.8072 10.4826 27.5948 11.7548C28.3825 13.0271 28.8002 14.4978 28.8002 15.9987V16.0009Z" fill="#F79E1B"/>
</svg>
