<svg width="32" height="32" viewBox="0 0 32 32" fill="none" xmlns="http://www.w3.org/2000/svg">
<path d="M28.8 23.0568C28.8 23.5808 28.3769 24 27.8479 24H4.15208C3.62315 24 3.20001 23.5808 3.20001 23.0568V8.94323C3.20001 8.41922 3.62315 8 4.15208 8H27.8479C28.3769 8 28.8 8.41922 28.8 8.94323V23.0568Z" fill="white"/>
<path d="M12.9322 12.646L10.076 19.3884H8.20712L6.79666 14.0085C6.72613 13.6941 6.62035 13.5543 6.37352 13.4146C5.95037 13.205 5.24514 12.9604 4.64569 12.8556L4.68095 12.646H7.6782C8.06608 12.646 8.4187 12.8906 8.48922 13.3447L9.22971 17.2574L11.0633 12.681H12.9322V12.646ZM20.2314 17.1875C20.2314 15.4058 17.763 15.301 17.763 14.5325C17.763 14.2879 18.0099 14.0434 18.5035 13.9735C18.7504 13.9386 19.4556 13.9037 20.2314 14.2879L20.5487 12.8556C20.1256 12.7159 19.5967 12.5412 18.8914 12.5412C17.1636 12.5412 15.9294 13.4495 15.9294 14.777C15.9294 15.7552 16.811 16.2792 17.481 16.5936C18.1509 16.908 18.3978 17.1176 18.3978 17.432C18.3978 17.8862 17.8688 18.0958 17.3399 18.0958C16.4584 18.0958 15.9294 17.8513 15.5416 17.6766L15.2242 19.1438C15.6473 19.3185 16.3878 19.4932 17.1636 19.4932C18.9972 19.4932 20.1961 18.5849 20.2314 17.1875ZM24.8154 19.3884H26.4374L25.027 12.646H23.5107C23.1581 12.646 22.876 12.8556 22.7702 13.1351L20.1256 19.3884H21.9592L22.3118 18.3753H24.5686L24.8154 19.3884ZM22.8407 17.0128L23.7575 14.4975L24.2865 17.0128H22.8407ZM15.4358 12.646L13.99 19.3884H12.227L13.6727 12.646H15.4358Z" fill="#1A1F71"/>
</svg>
