<svg width="64" height="32" viewBox="0 0 64 32" fill="none" xmlns="http://www.w3.org/2000/svg">
  <path d="M10.2595 26.881C10.2246 27.0979 10.2866 27.3192 10.4291 27.4864C10.5716 27.6537 10.7803 27.75 11 27.75H20.7405C21.1089 27.75 21.4227 27.4825 21.481 27.1187L22.994 17.6802L26.7557 27.2738C26.8683 27.561 27.1454 27.75 27.4539 27.75H32.2493C32.4961 27.75 32.7272 27.6285 32.8671 27.4251L39.3443 18.0111L37.9225 26.8813C37.8877 27.0982 37.9498 27.3194 38.0923 27.4866C38.2348 27.6537 38.4434 27.75 38.663 27.75H48.4635C48.8317 27.75 49.1455 27.4826 49.2039 27.119L52.7405 5.11904C52.7754 4.90211 52.7134 4.68081 52.5709 4.51357C52.4284 4.34634 52.2197 4.25 52 4.25H39.2325C38.9848 4.25 38.7532 4.37222 38.6134 4.5766L31.9547 14.3123L28.2432 4.72913C28.1314 4.44035 27.8536 4.25 27.5439 4.25H14.5366C14.1683 4.25 13.8545 4.51737 13.7961 4.88096L10.2595 26.881Z" fill="black" stroke="#FF3EC8" stroke-width="1.5" stroke-linejoin="round"/>
  <path d="M52.9737 12C52.9737 11.5858 52.6379 11.25 52.2237 11.25H50.7762C50.362 11.25 50.0262 11.5858 50.0262 12V16.0263H46C45.5858 16.0263 45.25 16.3621 45.25 16.7763V18.2238C45.25 18.638 45.5858 18.9738 46 18.9738H50.0262V23.0004C50.0262 23.4146 50.362 23.7504 50.7762 23.7504H52.2237C52.6379 23.7504 52.9737 23.4146 52.9737 23.0004V18.9738H57C57.4142 18.9738 57.75 18.638 57.75 18.2238V16.7763C57.75 16.3621 57.4142 16.0263 57 16.0263H52.9737V12ZM50.9837 18.0167V16.9837H52.0163V18.0167H50.9837Z" fill="#FF3EC8" stroke="black" stroke-width="1.5" stroke-linecap="square" stroke-linejoin="round"/>
</svg>
